{"glyphs":{":":{"x_min":0,"x_max":280,"ha":280,"o":"m 99 88 l 180 88 l 180 0 l 99 0 z m 99 502 l 180 502 l 180 414 l 99 414 z"},"$":{"x_min":0,"x_max":560,"ha":560,"o":"m 305 320 l 305 62 q 356 75 385 108 q 415 141 415 183 q 415 225 388 258 q 362 291 305 320 z m 259 639 q 213 626 190 599 q 166 572 166 533 q 166 498 189 469 q 211 440 259 416 z m 259 787 l 305 787 l 305 696 q 341 696 378 690 q 415 685 453 673 l 444 609 q 414 624 379 632 q 344 641 305 642 l 305 394 q 401 347 443 299 q 485 251 485 190 q 485 118 436 66 q 388 15 305 2 l 305 -84 l 259 -84 l 259 0 l 246 0 q 209 0 172 8 q 134 16 97 31 l 105 102 q 141 81 180 69 q 219 58 259 58 l 259 343 q 176 382 136 428 q 96 474 96 531 q 96 596 138 638 q 181 680 259 693 z"},"?":{"x_min":0,"x_max":498,"ha":498,"o":"m 166 88 l 247 88 l 247 0 l 166 0 z m 236 170 l 177 170 q 176 175 176 180 q 176 185 176 195 q 176 234 187 264 q 198 294 227 332 q 238 346 259 371 q 339 467 339 527 q 339 581 301 613 q 263 645 199 645 q 172 645 141 637 q 110 629 74 614 l 74 676 q 108 688 141 695 q 173 701 203 701 q 297 701 350 656 q 403 610 403 530 q 403 455 300 331 q 282 310 273 298 q 254 274 244 247 q 235 219 235 188 q 235 185 235 179 q 236 173 236 170 z"},"<":{"x_min":0,"x_max":833,"ha":833,"o":"m 704 505 l 194 298 l 704 91 l 704 48 l 129 283 l 129 313 l 704 549 z"},"'":{"x_min":0,"x_max":139,"ha":139,"o":"m 91 700 l 91 430 l 49 430 l 49 700 z"},"=":{"x_min":0,"x_max":833,"ha":833,"o":"m 709 229 l 709 189 l 124 189 l 124 229 z m 709 406 l 709 367 l 124 367 l 124 406 z"},"a":{"x_min":0,"x_max":499,"ha":499,"o":"m 289 253 q 201 253 154 224 q 107 194 107 140 q 107 97 135 71 q 162 44 207 44 q 276 44 318 88 q 359 132 359 207 l 359 253 z m 421 318 l 421 0 l 365 0 l 365 86 q 337 40 295 17 q 253 -7 199 -7 q 127 -7 84 32 q 41 71 41 136 q 41 216 107 260 q 174 304 295 304 l 359 304 q 359 307 359 312 q 360 318 360 321 q 360 383 329 418 q 298 453 243 453 q 205 453 170 443 q 135 433 100 411 l 100 472 q 137 490 175 500 q 213 509 250 509 q 335 509 378 461 q 421 413 421 318 z"},"L":{"x_min":0,"x_max":433,"ha":433,"o":"m 93 694 l 157 694 l 157 60 l 434 60 l 434 0 l 93 0 z"},"3":{"x_min":0,"x_max":560,"ha":560,"o":"m 315 366 q 388 355 429 311 q 471 267 471 199 q 471 107 402 51 q 333 -6 219 -6 q 169 -6 126 1 q 83 8 48 22 l 59 92 q 91 73 127 64 q 164 55 206 55 q 293 55 347 96 q 400 136 400 202 q 400 264 352 299 q 304 334 218 334 l 148 334 l 148 392 l 223 393 q 305 395 352 429 q 398 464 398 523 q 398 574 354 608 q 311 641 242 641 q 204 641 165 632 q 125 623 88 606 l 84 670 q 131 685 170 692 q 209 699 241 699 q 344 699 404 651 q 465 603 465 523 q 465 464 425 422 q 385 379 315 366 z"},";":{"x_min":0,"x_max":280,"ha":280,"o":"m 111 87 l 189 87 l 113 -130 l 50 -130 z m 109 498 l 190 498 l 190 410 l 109 410 z"},"J":{"x_min":0,"x_max":326,"ha":326,"o":"m 170 694 l 234 694 l 234 224 q 234 105 195 51 q 156 -3 71 -3 q 55 -3 37 -1 q 20 1 2 5 l 2 66 q 20 60 33 58 q 46 55 59 55 q 118 55 144 96 q 170 138 170 235 z"},"V":{"x_min":0,"x_max":606,"ha":606,"o":"m 13 694 l 83 694 l 305 71 l 537 694 l 602 694 l 338 0 l 269 0 z"},"\"":{"x_min":0,"x_max":269,"ha":269,"o":"m 220 700 l 220 430 l 178 430 l 178 700 z m 91 700 l 91 430 l 49 430 l 49 700 z"},"7":{"x_min":0,"x_max":560,"ha":560,"o":"m 61 694 l 481 694 l 481 633 l 208 0 l 135 0 l 411 636 l 61 636 z"},"S":{"x_min":0,"x_max":498,"ha":498,"o":"m 414 676 l 405 611 q 375 626 345 634 q 314 641 281 641 q 209 641 169 612 q 129 583 129 533 q 129 470 265 392 q 283 382 293 376 q 387 321 416 283 q 444 244 444 189 q 444 103 383 49 q 321 -5 222 -5 q 182 -5 142 3 q 102 11 64 27 l 72 99 q 114 76 152 65 q 189 54 223 54 q 292 54 333 89 q 375 125 375 183 q 375 253 243 329 q 223 341 212 347 q 121 400 92 439 q 63 478 63 530 q 63 610 120 655 q 178 699 282 699 q 314 699 346 693 q 379 688 414 676 z"},"}":{"x_min":0,"x_max":500,"ha":500,"o":"m 266 537 l 266 420 q 266 343 294 311 q 323 280 392 280 q 396 280 403 280 q 410 281 414 281 l 414 237 q 410 237 403 237 q 396 238 392 238 q 323 238 294 207 q 266 175 266 98 l 266 -19 q 266 -129 233 -166 q 199 -202 107 -202 l 86 -202 l 86 -159 l 105 -159 q 170 -159 193 -135 q 216 -110 216 -31 l 216 87 q 216 172 237 208 q 258 243 312 259 q 258 274 237 310 q 216 346 216 431 l 216 549 q 216 628 193 653 q 170 678 104 678 l 86 678 l 86 721 l 107 721 q 199 721 233 685 q 266 648 266 537 z"},"Z":{"x_min":0,"x_max":509,"ha":509,"o":"m 38 694 l 459 694 l 459 630 l 96 60 l 468 60 l 468 0 l 28 0 l 28 67 l 391 637 l 38 637 z"},"x":{"x_min":0,"x_max":421,"ha":421,"o":"m 27 498 l 105 498 l 223 312 l 345 498 l 415 498 l 256 269 l 431 0 l 355 0 l 218 217 l 81 0 l 11 0 l 185 264 z"},")":{"x_min":0,"x_max":299,"ha":299,"o":"m 23 755 l 75 755 q 155 632 195 522 q 234 412 234 311 q 234 210 195 101 q 156 -9 75 -132 l 23 -132 q 99 -3 133 103 q 168 209 168 311 q 168 413 133 520 q 98 627 23 755 z"},"&":{"x_min":0,"x_max":667,"ha":667,"o":"m 253 346 q 192 320 157 278 q 123 235 123 185 q 123 124 168 83 q 214 43 285 43 q 334 43 375 63 q 417 83 451 124 z m 312 372 l 489 176 q 516 215 532 267 q 548 319 552 381 l 612 381 q 609 312 588 250 q 567 187 528 131 l 647 0 l 560 0 l 490 81 q 445 34 393 11 q 340 -12 278 -12 q 179 -12 118 42 q 56 96 56 181 q 56 250 97 301 q 137 353 216 385 q 171 433 150 473 q 130 514 130 553 q 130 620 179 662 q 228 705 304 705 q 382 705 428 665 q 475 625 475 558 q 475 502 434 455 q 393 408 312 372 z m 277 411 q 345 439 378 475 q 412 510 412 552 q 412 594 382 622 q 351 649 304 649 q 256 649 225 621 q 194 593 194 549 q 194 518 213 487 q 231 455 277 411 z"},"_":{"x_min":0,"x_max":500,"ha":500,"o":"m 500 -197 l 500 -236 l 0 -236 l 0 -197 z"},"v":{"x_min":0,"x_max":435,"ha":435,"o":"m 16 498 l 82 498 l 223 55 l 369 498 l 429 498 l 257 0 l 182 0 z"},"O":{"x_min":0,"x_max":718,"ha":718,"o":"m 359 649 q 252 649 188 567 q 124 485 124 348 q 124 211 188 129 q 252 47 359 47 q 466 47 530 129 q 594 211 594 348 q 594 485 530 567 q 466 649 359 649 z m 359 706 q 498 706 581 609 q 663 512 663 347 q 663 182 581 85 q 498 -12 359 -12 q 219 -12 137 85 q 54 183 54 347 q 54 512 137 609 q 219 706 359 706 z"},"(":{"x_min":0,"x_max":299,"ha":299,"o":"m 224 755 l 276 755 q 201 627 166 520 q 131 413 131 311 q 131 209 166 103 q 201 -3 276 -132 l 224 -132 q 143 -8 103 101 q 64 210 64 311 q 64 412 104 521 q 143 631 224 755 z"},"C":{"x_min":0,"x_max":583,"ha":583,"o":"m 563 672 l 563 609 q 522 625 485 632 q 448 639 412 639 q 277 639 200 560 q 123 480 123 341 q 123 208 200 133 q 277 57 412 57 q 452 57 489 64 q 525 71 559 85 l 559 20 q 527 9 488 3 q 449 -2 400 -2 q 241 -2 147 91 q 53 185 53 342 q 53 504 151 600 q 249 696 413 696 q 457 696 495 690 q 533 684 563 672 z"},"W":{"x_min":0,"x_max":931,"ha":931,"o":"m 12 694 l 82 694 l 241 110 q 243 104 246 87 q 249 71 252 49 q 252 62 254 75 q 257 88 262 106 l 428 694 l 514 694 l 678 106 q 680 98 683 83 q 686 67 689 49 q 690 65 692 79 q 694 92 697 103 l 864 694 l 926 694 l 725 0 l 645 0 l 478 593 q 475 603 473 616 q 471 629 469 647 q 466 628 463 613 q 461 598 460 593 l 290 0 l 208 0 z"},"A":{"x_min":0,"x_max":644,"ha":644,"o":"m 332 636 l 177 247 l 482 247 z m 294 694 l 373 694 l 648 0 l 578 0 l 505 189 l 151 189 l 78 0 l 12 0 z"},"f":{"x_min":0,"x_max":323,"ha":323,"o":"m 320 748 l 320 690 q 304 695 292 698 q 279 700 270 700 q 229 700 210 673 q 191 646 191 587 l 191 498 l 306 498 l 306 447 l 191 447 l 191 0 l 129 0 l 129 447 l 25 447 l 25 498 l 129 498 l 129 588 q 129 671 164 713 q 199 755 269 755 q 279 755 291 753 q 303 752 320 748 z"},"Q":{"x_min":0,"x_max":718,"ha":718,"o":"m 476 10 l 630 -134 l 542 -134 l 409 -8 q 402 -9 390 -10 q 366 -12 359 -12 q 219 -12 137 85 q 54 182 54 347 q 54 512 137 609 q 219 706 359 706 q 498 706 581 609 q 663 512 663 347 q 663 223 616 138 q 569 54 476 10 z m 359 649 q 252 649 188 567 q 124 485 124 348 q 124 211 188 129 q 252 47 359 47 q 466 47 530 129 q 594 211 594 348 q 594 485 530 567 q 466 649 359 649 z"},"w":{"x_min":0,"x_max":769,"ha":769,"o":"m 16 498 l 86 498 l 203 94 q 204 90 206 82 q 208 73 213 50 q 216 71 222 90 q 222 91 222 92 l 349 498 l 429 498 l 555 97 q 557 92 564 55 l 565 50 q 567 71 569 82 q 571 92 572 95 l 702 498 l 764 498 l 597 0 l 526 0 l 392 418 q 389 430 387 439 q 386 448 385 457 q 382 438 381 429 q 379 420 378 416 l 247 0 l 175 0 z"},"-":{"x_min":0,"x_max":338,"ha":338,"o":"m 47 295 l 290 295 l 290 240 l 47 240 z"},"E":{"x_min":0,"x_max":507,"ha":507,"o":"m 93 694 l 431 694 l 431 639 l 157 639 l 157 389 l 416 389 l 416 331 l 157 331 l 157 60 l 437 60 l 437 0 l 93 0 z"},"s":{"x_min":0,"x_max":390,"ha":390,"o":"m 333 487 l 333 428 q 305 440 276 447 q 247 453 217 453 q 170 453 141 433 q 113 413 113 381 q 113 336 209 292 q 219 287 224 285 q 299 250 328 217 q 357 184 357 137 q 357 72 308 33 q 259 -6 176 -6 q 139 -6 106 0 q 73 6 45 18 l 45 77 q 77 62 109 54 q 141 46 172 46 q 225 46 258 70 q 291 94 291 132 q 291 164 272 185 q 252 207 176 243 q 100 280 74 309 q 48 339 48 381 q 48 435 93 469 q 138 504 210 504 q 244 504 274 500 q 305 496 333 487 z"},">":{"x_min":0,"x_max":833,"ha":833,"o":"m 704 313 l 704 283 l 129 48 l 129 91 l 639 298 l 129 505 l 129 549 z"},"l":{"x_min":0,"x_max":227,"ha":227,"o":"m 82 745 l 145 745 l 145 0 l 82 0 z"},"8":{"x_min":0,"x_max":560,"ha":560,"o":"m 269 337 q 193 309 156 270 q 119 231 119 181 q 119 124 164 85 q 209 47 278 47 q 347 47 392 84 q 437 122 437 177 q 437 227 396 266 q 356 304 269 337 z m 340 363 q 425 335 468 290 q 510 244 510 179 q 510 95 445 42 q 381 -12 279 -12 q 177 -12 114 42 q 50 97 50 182 q 50 247 91 292 q 133 336 218 362 q 148 393 113 438 q 77 483 77 542 q 77 614 135 660 q 193 705 287 705 q 378 705 433 661 q 489 617 489 545 q 489 490 451 444 q 413 397 340 363 z m 287 383 q 351 418 385 459 q 419 501 419 544 q 419 591 382 622 q 346 652 288 652 q 224 652 184 619 q 143 587 143 537 q 143 491 176 455 q 208 420 287 383 z"},"\\":{"x_min":0,"x_max":278,"ha":278,"o":"m -24 706 l 33 706 l 333 -93 l 276 -93 z"},"e":{"x_min":0,"x_max":484,"ha":484,"o":"m 461 274 l 461 238 l 109 238 q 112 143 158 93 q 205 42 289 42 q 322 42 356 51 q 389 60 423 78 l 423 16 q 390 2 355 -5 q 321 -12 283 -12 q 173 -12 110 58 q 48 127 48 252 q 48 368 108 439 q 169 510 267 510 q 356 510 408 446 q 461 383 461 274 z m 400 284 q 395 368 358 412 q 322 457 260 457 q 199 457 159 410 q 118 364 111 284 z"},"b":{"x_min":0,"x_max":564,"ha":564,"o":"m 305 457 q 232 457 192 403 q 151 348 151 250 q 151 158 193 103 q 235 47 303 47 q 369 47 409 102 q 448 156 448 250 q 448 346 410 402 q 371 457 305 457 z m 88 745 l 151 745 l 151 415 q 176 460 218 485 q 259 509 311 509 q 403 509 459 440 q 515 371 515 256 q 515 139 460 66 q 405 -7 318 -7 q 261 -7 217 21 q 174 48 146 102 l 146 0 l 88 0 z"},"%":{"x_min":0,"x_max":838,"ha":838,"o":"m 653 304 q 611 304 584 267 q 557 230 557 171 q 557 112 584 75 q 610 39 653 39 q 695 39 721 75 q 747 111 747 171 q 747 231 721 268 q 695 304 653 304 z m 652 353 q 723 353 766 303 q 808 254 808 170 q 808 86 766 37 q 724 -12 652 -12 q 580 -12 538 37 q 495 86 495 170 q 495 254 538 303 q 580 353 652 353 z m 196 657 q 154 657 127 621 q 101 584 101 525 q 101 466 127 429 q 154 393 196 393 q 239 393 265 429 q 291 465 291 525 q 291 585 265 621 q 239 657 196 657 z m 581 706 l 635 706 l 266 -12 l 212 -12 z m 195 706 q 267 706 309 657 q 351 607 351 524 q 351 440 309 391 q 267 342 195 342 q 123 342 81 391 q 38 440 38 524 q 38 608 81 657 q 123 706 195 706 z"},"m":{"x_min":0,"x_max":843,"ha":843,"o":"m 449 398 q 475 451 518 479 q 560 508 612 508 q 688 508 727 456 q 766 405 766 304 l 766 0 l 703 0 l 703 289 q 703 373 678 411 q 653 450 599 450 q 533 450 496 399 q 458 349 458 259 l 458 0 l 396 0 l 396 289 q 396 372 371 411 q 346 450 292 450 q 227 450 189 399 q 151 349 151 259 l 151 0 l 88 0 l 88 498 l 146 498 l 146 404 q 171 455 212 481 q 253 508 305 508 q 358 508 395 480 q 431 452 449 398 z"},"#":{"x_min":0,"x_max":769,"ha":769,"o":"m 478 423 l 346 423 l 298 285 l 429 285 z m 447 710 l 362 467 l 494 467 l 580 710 l 634 710 l 549 467 l 706 467 l 691 423 l 533 423 l 484 285 l 654 285 l 639 241 l 468 241 l 383 0 l 328 0 l 414 241 l 282 241 l 195 0 l 141 0 l 226 241 l 63 241 l 78 285 l 242 285 l 291 423 l 115 423 l 129 467 l 307 467 l 393 710 z"},",":{"x_min":0,"x_max":280,"ha":280,"o":"m 118 87 l 195 87 l 120 -130 l 57 -130 z"},"n":{"x_min":0,"x_max":558,"ha":558,"o":"m 481 304 l 481 0 l 418 0 l 418 289 q 418 373 389 413 q 360 452 298 452 q 229 452 190 401 q 151 350 151 259 l 151 0 l 88 0 l 88 498 l 146 498 l 146 404 q 173 457 216 483 q 258 509 316 509 q 396 509 439 456 q 481 404 481 304 z"},"h":{"x_min":0,"x_max":558,"ha":558,"o":"m 88 745 l 151 745 l 151 412 q 177 460 219 485 q 260 509 316 509 q 396 509 439 456 q 481 404 481 304 l 481 0 l 418 0 l 418 289 q 418 373 389 413 q 360 452 298 452 q 229 452 190 401 q 151 350 151 259 l 151 0 l 88 0 z"},"z":{"x_min":0,"x_max":456,"ha":456,"o":"m 50 498 l 407 498 l 407 441 l 108 53 l 407 53 l 407 0 l 36 0 l 36 55 l 334 444 l 50 444 z"},"B":{"x_min":0,"x_max":542,"ha":542,"o":"m 157 333 l 157 60 l 231 60 q 323 60 374 95 q 424 131 424 195 q 424 264 379 299 q 334 333 245 333 z m 157 637 l 157 391 l 235 391 q 316 391 360 424 q 404 456 404 516 q 404 574 362 606 q 320 637 243 637 z m 93 694 l 243 694 q 351 694 412 648 q 473 603 473 524 q 473 464 440 424 q 408 384 345 368 q 418 349 456 304 q 493 259 493 189 q 493 102 428 51 q 363 0 250 0 l 93 0 z"},"K":{"x_min":0,"x_max":556,"ha":556,"o":"m 93 694 l 157 694 l 157 387 l 472 694 l 555 694 l 221 368 l 581 1 l 494 1 l 157 345 l 157 1 l 93 1 z"},"R":{"x_min":0,"x_max":539,"ha":539,"o":"m 157 636 l 157 378 l 237 378 q 315 378 360 415 q 404 451 404 516 q 404 577 363 606 q 323 636 240 636 z m 93 694 l 247 694 q 359 694 417 649 q 474 604 474 517 q 474 452 433 408 q 392 364 317 348 q 348 341 368 322 q 389 302 409 256 l 523 0 l 451 0 l 348 241 q 329 284 302 302 q 274 320 225 320 l 157 320 l 157 0 l 93 0 z"},"T":{"x_min":0,"x_max":486,"ha":486,"o":"m 8 694 l 478 694 l 478 634 l 275 634 l 275 0 l 211 0 l 211 634 l 8 634 z"},"P":{"x_min":0,"x_max":495,"ha":495,"o":"m 157 637 l 157 356 l 226 356 q 311 356 357 394 q 403 431 403 500 q 403 564 361 601 q 319 637 244 637 z m 93 694 l 238 694 q 353 694 413 644 q 473 594 473 499 q 473 404 408 351 q 343 298 226 298 l 157 298 l 157 0 l 93 0 z"},"|":{"x_min":0,"x_max":500,"ha":500,"o":"m 272 764 l 272 -236 l 228 -236 l 228 764 z"},"t":{"x_min":0,"x_max":336,"ha":336,"o":"m 189 646 l 189 498 l 305 498 l 305 447 l 189 447 l 189 156 q 189 95 205 72 q 221 48 260 48 q 272 48 285 51 q 298 54 311 59 l 311 2 q 295 -2 280 -5 q 264 -7 247 -7 q 181 -7 154 27 q 126 62 126 145 l 126 447 l 24 447 l 24 498 l 126 498 l 126 624 z"},"M":{"x_min":0,"x_max":888,"ha":888,"o":"m 93 694 l 190 694 l 424 123 q 429 111 433 96 q 437 81 440 62 q 441 77 445 91 q 448 105 454 119 l 700 694 l 795 694 l 795 0 l 735 0 l 735 585 q 735 586 734 593 q 734 599 734 605 q 734 615 735 625 q 736 635 739 646 q 727 621 718 597 q 717 595 717 594 l 466 0 l 410 0 l 163 594 q 161 600 152 629 q 149 640 147 646 q 148 628 151 608 q 153 588 153 585 l 153 0 l 93 0 z"},"g":{"x_min":0,"x_max":562,"ha":562,"o":"m 262 458 q 197 458 158 404 q 119 350 119 256 q 119 162 158 107 q 197 52 264 52 q 332 52 374 107 q 416 162 416 253 q 416 349 375 404 q 334 458 262 458 z m 422 405 l 422 498 l 479 498 l 479 53 q 479 -84 423 -152 q 367 -220 254 -220 q 211 -220 171 -213 q 130 -206 95 -191 l 100 -124 q 137 -144 175 -154 q 213 -164 251 -164 q 332 -164 376 -110 q 421 -57 421 41 l 421 106 q 393 53 351 26 q 308 -2 255 -2 q 164 -2 108 68 q 52 138 52 254 q 52 371 107 440 q 163 509 257 509 q 313 509 355 482 q 397 456 422 405 z"},"j":{"x_min":0,"x_max":227,"ha":227,"o":"m 82 498 l 145 498 l 145 -33 q 145 -133 116 -176 q 88 -218 22 -218 q 10 -218 -3 -216 q -16 -214 -29 -211 l -23 -157 q -9 -161 -1 -163 q 7 -164 13 -164 q 52 -164 67 -137 q 82 -109 82 -30 z m 77 731 l 149 731 l 149 650 l 77 650 z"},"i":{"x_min":0,"x_max":227,"ha":227,"o":"m 82 498 l 145 498 l 145 0 l 82 0 z m 77 731 l 149 731 l 149 650 l 77 650 z"},"y":{"x_min":0,"x_max":431,"ha":431,"o":"m 12 498 l 79 498 l 223 66 l 368 498 l 431 498 l 232 -74 q 205 -151 171 -184 q 138 -217 87 -217 q 75 -217 62 -215 q 49 -214 36 -211 l 41 -155 l 43 -155 q 74 -160 82 -160 q 118 -160 142 -130 q 166 -101 192 -20 z"},"@":{"x_min":0,"x_max":1000,"ha":1000,"o":"m 636 404 l 666 467 l 705 467 l 638 197 q 633 179 631 165 q 628 151 628 144 q 628 123 643 111 q 658 99 685 99 q 708 99 734 109 q 759 118 784 136 q 833 172 863 237 q 893 302 893 375 q 893 508 796 590 q 698 671 539 671 q 457 671 387 647 q 318 624 261 577 q 186 515 148 432 q 110 350 110 249 q 110 89 218 -6 q 326 -101 507 -101 q 585 -101 665 -76 q 745 -52 811 -7 l 825 -29 q 754 -83 675 -109 q 595 -136 509 -136 q 417 -136 341 -114 q 265 -91 206 -46 q 132 10 95 85 q 59 159 59 255 q 59 334 84 405 q 108 476 156 534 q 226 620 324 664 q 423 708 544 708 q 622 708 693 687 q 763 665 814 626 q 876 578 909 515 q 941 453 941 380 q 941 297 910 229 q 879 162 822 116 q 789 90 751 76 q 712 62 673 62 q 626 62 603 80 q 579 98 579 133 q 579 139 581 149 q 581 151 581 152 q 557 109 520 85 q 483 62 439 62 q 364 62 325 103 q 286 143 286 221 q 286 333 352 410 q 417 487 511 487 q 558 487 589 466 q 621 445 636 404 z m 595 228 l 626 352 q 615 400 586 426 q 557 451 512 451 q 438 451 387 384 q 337 316 337 218 q 337 162 365 130 q 393 98 443 98 q 497 98 539 134 q 580 169 595 228 z"},".":{"x_min":0,"x_max":280,"ha":280,"o":"m 99 88 l 180 88 l 180 0 l 99 0 z"},"p":{"x_min":0,"x_max":564,"ha":564,"o":"m 151 85 l 151 -209 l 88 -209 l 88 498 l 146 498 l 146 400 q 174 453 219 481 q 263 509 318 509 q 409 509 464 440 q 518 372 518 256 q 518 136 462 65 q 406 -6 311 -6 q 260 -6 219 18 q 177 41 151 85 z m 450 252 q 450 348 412 401 q 374 455 306 455 q 236 455 194 400 q 151 345 151 253 q 151 155 192 100 q 232 45 305 45 q 371 45 410 101 q 450 157 450 252 z"},"X":{"x_min":0,"x_max":609,"ha":609,"o":"m 34 694 l 115 694 l 309 410 l 503 694 l 577 694 l 344 364 l 598 0 l 520 0 l 301 317 l 81 0 l 9 0 l 267 363 z"},"*":{"x_min":0,"x_max":500,"ha":500,"o":"m 218 738 l 281 738 l 268 577 l 415 644 l 437 574 l 280 541 l 389 422 l 329 378 l 250 519 l 170 378 l 110 422 l 219 541 l 63 574 l 85 644 l 231 577 z"},"Y":{"x_min":0,"x_max":556,"ha":556,"o":"m -12 694 l 67 694 l 278 352 l 495 694 l 567 694 l 309 297 l 309 0 l 245 0 l 245 295 z"},"c":{"x_min":0,"x_max":444,"ha":444,"o":"m 415 483 l 410 420 q 386 433 358 439 q 330 446 297 446 q 217 446 166 391 q 115 336 115 249 q 115 158 163 105 q 211 52 293 52 q 321 52 351 59 q 380 65 411 79 l 417 17 q 387 5 355 0 q 323 -6 289 -6 q 180 -6 114 64 q 48 134 48 250 q 48 362 118 432 q 188 502 300 502 q 332 502 360 497 q 388 493 415 483 z"},"!":{"x_min":0,"x_max":391,"ha":391,"o":"m 155 88 l 236 88 l 236 0 l 155 0 z m 157 694 l 234 694 l 222 173 l 170 173 z"},"/":{"x_min":0,"x_max":278,"ha":278,"o":"m 245 706 l 302 706 l 2 -93 l -55 -93 z"},"[":{"x_min":0,"x_max":299,"ha":299,"o":"m 90 753 l 237 753 l 237 708 l 145 708 l 145 -87 l 237 -87 l 237 -132 l 90 -132 z"},"6":{"x_min":0,"x_max":560,"ha":560,"o":"m 298 383 q 230 383 188 337 q 145 291 145 217 q 145 142 187 94 q 228 47 293 47 q 361 47 404 93 q 447 140 447 214 q 447 290 406 336 q 365 383 298 383 z m 489 682 l 484 622 q 457 635 427 641 q 398 648 367 648 q 256 648 195 568 q 134 489 131 340 q 156 387 202 413 q 248 440 303 440 q 401 440 458 380 q 515 321 515 217 q 515 117 454 52 q 392 -12 296 -12 q 184 -12 125 70 q 67 152 67 308 q 67 498 142 600 q 217 702 357 702 q 389 702 422 697 q 455 692 489 682 z"},"r":{"x_min":0,"x_max":333,"ha":333,"o":"m 320 502 l 320 438 q 309 440 301 442 q 292 443 285 443 q 222 443 187 396 q 151 348 151 264 l 151 0 l 88 0 l 88 498 l 146 498 l 146 393 q 165 446 202 476 q 239 505 288 505 q 295 505 302 504 q 310 503 320 502 z"},"2":{"x_min":0,"x_max":560,"ha":560,"o":"m 136 61 l 469 61 l 469 0 l 59 0 l 59 61 q 250 263 316 360 q 382 457 382 522 q 382 575 345 608 q 309 641 250 641 q 209 641 169 628 q 130 615 95 591 l 82 658 q 130 681 175 692 q 219 703 261 703 q 349 703 400 655 q 451 607 451 524 q 451 449 389 353 q 326 258 136 61 z"},"{":{"x_min":0,"x_max":500,"ha":500,"o":"m 414 678 l 396 678 q 330 678 307 653 q 284 628 284 549 l 284 431 q 284 346 263 310 q 242 274 189 259 q 242 243 263 208 q 284 173 284 87 l 284 -31 q 284 -110 307 -135 q 330 -159 395 -159 l 414 -159 l 414 -202 l 393 -202 q 301 -202 267 -166 q 234 -129 234 -19 l 234 98 q 234 175 206 207 q 177 238 108 238 q 104 238 97 237 q 90 237 86 237 l 86 281 q 91 280 96 280 q 101 280 110 280 q 178 280 206 311 q 234 343 234 420 l 234 537 q 234 648 267 685 q 301 721 393 721 l 414 721 z"},"9":{"x_min":0,"x_max":560,"ha":560,"o":"m 86 12 l 91 73 q 118 60 146 53 q 174 47 201 47 q 317 47 379 125 q 440 203 444 355 q 419 308 374 281 q 328 255 272 255 q 175 255 118 314 q 60 373 60 472 q 60 577 120 641 q 181 706 278 706 q 390 706 449 624 q 508 542 508 386 q 508 197 433 95 q 357 -7 218 -7 q 184 -7 150 -2 q 117 2 86 12 z m 430 484 q 430 557 389 603 q 348 648 283 648 q 217 648 172 598 q 128 547 128 472 q 128 401 170 357 q 211 312 277 312 q 347 312 388 359 q 430 405 430 484 z"}," ":{"x_min":0,"x_max":280,"ha":280,"o":""},"I":{"x_min":0,"x_max":250,"ha":250,"o":"m 93 694 l 157 694 l 157 0 l 93 0 z"},"H":{"x_min":0,"x_max":667,"ha":667,"o":"m 93 694 l 157 694 l 157 390 l 510 390 l 510 694 l 574 694 l 574 0 l 510 0 l 510 332 l 157 332 l 157 0 l 93 0 z"},"4":{"x_min":0,"x_max":560,"ha":560,"o":"m 363 626 l 91 222 l 363 222 z m 341 694 l 425 694 l 425 222 l 529 222 l 529 164 l 425 164 l 425 0 l 363 0 l 363 164 l 28 164 l 28 230 z"},"~":{"x_min":0,"x_max":833,"ha":833,"o":"m 747 316 q 695 280 648 262 q 602 244 558 244 q 510 244 428 274 q 420 277 417 278 q 412 280 401 284 q 320 313 276 313 q 235 313 190 295 q 146 276 87 235 l 87 280 q 138 316 185 333 q 232 351 276 351 q 325 351 408 321 q 414 319 417 318 q 421 316 431 313 q 513 283 558 283 q 599 283 644 302 q 688 320 747 361 z"},"D":{"x_min":0,"x_max":657,"ha":657,"o":"m 157 637 l 157 60 l 236 60 q 379 60 458 136 q 537 212 537 349 q 537 491 462 564 q 387 637 241 637 z m 93 694 l 225 694 q 413 694 510 606 q 607 519 607 351 q 607 186 508 93 q 408 0 231 0 l 93 0 z"},"^":{"x_min":0,"x_max":1000,"ha":1000,"o":"m 528 712 l 792 440 l 731 440 l 500 669 l 268 440 l 207 440 l 470 712 z"},"0":{"x_min":0,"x_max":560,"ha":560,"o":"m 280 651 q 204 651 165 573 q 125 496 125 348 q 125 200 165 123 q 204 46 280 46 q 356 46 396 123 q 436 201 436 348 q 436 496 396 573 q 356 651 280 651 z m 280 706 q 390 706 447 614 q 505 522 505 347 q 505 172 447 80 q 389 -12 280 -12 q 170 -12 113 80 q 55 171 55 347 q 55 522 113 614 q 170 706 280 706 z"},"F":{"x_min":0,"x_max":447,"ha":447,"o":"m 93 694 l 416 694 l 416 639 l 157 639 l 157 389 l 405 389 l 405 331 l 157 331 l 157 0 l 93 0 z"},"`":{"x_min":0,"x_max":500,"ha":500,"o":"m 135 734 l 209 734 l 311 564 l 266 564 z"},"k":{"x_min":0,"x_max":466,"ha":466,"o":"m 88 745 l 151 745 l 151 303 l 372 498 l 450 498 l 208 287 l 481 0 l 398 0 l 151 261 l 151 0 l 88 0 z"},"u":{"x_min":0,"x_max":558,"ha":558,"o":"m 77 498 l 139 498 l 139 213 q 139 129 168 89 q 197 50 259 50 q 330 50 368 104 q 406 159 406 261 l 406 498 l 469 498 l 469 0 l 411 0 l 411 98 q 384 45 342 19 q 299 -7 241 -7 q 161 -7 119 45 q 77 97 77 198 z"},"]":{"x_min":0,"x_max":299,"ha":299,"o":"m 61 753 l 208 753 l 208 -132 l 61 -132 l 61 -87 l 153 -87 l 153 708 l 61 708 z"},"U":{"x_min":0,"x_max":678,"ha":678,"o":"m 86 694 l 150 694 l 150 284 q 150 164 195 105 q 241 46 333 46 q 426 46 473 109 q 521 172 521 296 l 521 694 l 579 694 l 579 292 q 579 139 517 63 q 455 -12 329 -12 q 209 -12 147 62 q 86 135 86 279 z"},"o":{"x_min":0,"x_max":558,"ha":558,"o":"m 279 456 q 206 456 160 399 q 115 343 115 250 q 115 158 161 101 q 206 44 279 44 q 354 44 399 100 q 444 156 444 250 q 444 344 399 400 q 354 456 279 456 z m 279 509 q 385 509 447 439 q 510 369 510 249 q 510 129 447 59 q 384 -12 279 -12 q 174 -12 111 59 q 48 129 48 249 q 48 368 111 438 q 173 509 279 509 z"},"N":{"x_min":0,"x_max":682,"ha":682,"o":"m 93 694 l 175 694 l 514 112 q 518 106 523 94 q 528 82 535 64 q 532 83 531 98 q 529 114 529 126 l 529 694 l 589 694 l 589 0 l 511 0 l 167 587 q 161 597 156 609 q 151 622 147 638 q 150 614 151 598 q 153 583 153 577 l 153 0 l 93 0 z"},"+":{"x_min":0,"x_max":833,"ha":833,"o":"m 436 596 l 436 318 l 709 318 l 709 278 l 436 278 l 436 0 l 397 0 l 397 278 l 124 278 l 124 318 l 397 318 l 397 596 z"},"G":{"x_min":0,"x_max":687,"ha":687,"o":"m 593 663 l 580 603 q 541 622 498 632 q 456 641 408 641 q 278 641 201 562 q 124 483 124 350 q 124 213 204 133 q 285 52 421 52 q 458 52 489 58 q 521 64 549 77 l 549 317 l 390 317 l 390 373 l 614 373 l 614 34 q 568 16 518 6 q 469 -3 415 -3 q 345 -3 290 13 q 234 29 189 63 q 124 111 89 185 q 54 258 54 348 q 54 408 71 462 q 87 515 121 564 q 164 626 240 661 q 316 697 407 697 q 458 697 504 688 q 550 680 593 663 z"},"q":{"x_min":0,"x_max":564,"ha":564,"o":"m 257 455 q 189 455 151 401 q 113 348 113 252 q 113 157 153 101 q 192 45 258 45 q 331 45 371 100 q 412 155 412 253 q 412 345 369 400 q 327 455 257 455 z m 417 400 l 417 498 l 475 498 l 475 -209 l 412 -209 l 412 85 q 386 41 345 17 q 304 -6 253 -6 q 158 -6 102 65 q 46 136 46 256 q 46 372 100 440 q 155 509 246 509 q 300 509 344 481 q 388 453 417 400 z"},"d":{"x_min":0,"x_max":564,"ha":564,"o":"m 258 457 q 192 457 154 402 q 115 347 115 253 q 115 157 154 102 q 192 47 259 47 q 327 47 370 103 q 412 158 412 250 q 412 347 371 402 q 330 457 258 457 z m 412 745 l 475 745 l 475 0 l 417 0 l 417 102 q 389 48 346 21 q 302 -7 245 -7 q 158 -7 103 66 q 47 139 47 256 q 47 371 103 440 q 159 509 252 509 q 304 509 345 485 q 387 460 412 415 z"},"1":{"x_min":0,"x_max":560,"ha":560,"o":"m 274 694 l 330 694 l 330 0 l 267 0 l 267 620 l 158 518 l 120 560 z"},"5":{"x_min":0,"x_max":560,"ha":560,"o":"m 104 694 l 461 694 l 461 639 l 168 639 l 164 419 q 193 425 219 429 q 244 432 264 432 q 372 432 433 376 q 493 320 493 221 q 493 116 424 54 q 355 -8 236 -8 q 196 -8 160 -2 q 124 4 91 17 l 90 87 q 122 69 159 59 q 196 50 239 50 q 321 50 372 97 q 423 144 423 220 q 423 292 377 333 q 332 374 251 374 q 223 374 188 369 q 152 363 98 350 z"}}}
